<?xml version="1.0" encoding="UTF-8"?>
<!DOCTYPE svg PUBLIC "-//W3C//DTD SVG 1.1//EN" "http://www.w3.org/Graphics/SVG/1.1/DTD/svg11.dtd">
<!-- Creator: CorelDRAW 2020 (64-Bit) -->
<svg xmlns="http://www.w3.org/2000/svg" xml:space="preserve" width="8.26772in" height="11.6929in" version="1.1" style="shape-rendering:geometricPrecision; text-rendering:geometricPrecision; image-rendering:optimizeQuality; fill-rule:evenodd; clip-rule:evenodd"
viewBox="0 0 8267.72 11692.91"
 xmlns:xlink="http://www.w3.org/1999/xlink"
 xmlns:xodm="http://www.corel.com/coreldraw/odm/2003">
 <defs>
  <style type="text/css">
   <![CDATA[
    .fil0 {fill:black}
   ]]>
  </style>
 </defs>
 <g id="Layer_x0020_1">
  <metadata id="CorelCorpID_0Corel-Layer"/>
  <g id="_2024214810864">
   <path class="fil0" d="M575.94 7068.74l0 1722c0,70.89 62.78,138.18 114.48,163.26 105.15,51 1149.08,-11.83 1375.73,26.87 638.17,108.98 1270.13,236.68 1908.17,341.55 74.42,12.23 151.26,27.72 236.08,41.66 123.99,20.38 195.23,36.09 249.57,37.7l18.16 0c100.96,-3.49 151.5,-66.8 430.7,-263.76l2416.31 -1708.17c238.68,-169.37 361.02,-195.73 361.02,-388.89 0,-93.22 -115.18,-195.37 -176.2,-240.41 -237.21,-175.11 -516.2,-154.02 -754.38,4.18 -95.96,63.74 -182.44,126.01 -280.51,191.65 -96.54,64.62 -180.23,130.13 -277.59,194.57l-1247.04 863.81c-39.16,27.84 -91.77,83.27 -152.81,83.27l-1458.15 0c-271.98,0 -310.63,-267.65 -155.73,-377.93 119.01,-84.73 1127.09,-16.4 1419.31,-38.84 175.48,-13.48 361.22,-204.39 361.22,-374.8 0,-131.41 -8.09,-222.87 -114.09,-330.29 -57.23,-58 -146.65,-120.11 -247.13,-127.83 -122.35,-9.4 -257.97,13.24 -361.9,-13.06 -149.07,-37.71 -277.42,-289.07 -705.39,-419.47 -422.05,-128.59 -806.25,-95.87 -1188.35,134.66 -83.83,50.58 -146.72,95.96 -219.34,155.62 -131.65,108.16 -125.11,141.16 -231.97,142.98 -327.51,5.59 -836.17,-15.05 -1126.4,-1.54 -98.8,4.6 -193.77,86.63 -193.77,181.19z"/>
   <path class="fil0" d="M2256.29 4069.11c0,350.75 18.9,596.36 180.48,916.61 112.01,221.99 236.17,405.52 419.97,566.02 236.02,206.1 453.73,357.3 782.54,439.52 557.28,139.36 1122.57,54.28 1577.14,-281.3 347.55,-256.57 618.63,-609.87 725.69,-1037.98 168.32,-673.09 -2.51,-1343.27 -488.3,-1828.41 -304.87,-304.47 -774.09,-552.01 -1239.43,-552.01 -333.2,0 -595.4,32.52 -879.63,175.79 -204.39,103.03 -366.37,216.15 -519.5,369.28 -295.33,295.32 -558.96,802.73 -558.96,1232.48zm2110.92 -704.07l0 311.44 -331.43 0 -221.29 -311.44 -245.65 0 0 311.44 -301.18 0 0 216.96 301.18 0 0 296.02 -301.18 0 0 216.96 301.18 0 0 391.57 327.54 0 0 -391.57 274.49 0 278.22 391.57 245.65 0 0 -391.57 312.3 0 0 -216.96 -312.3 0 0 -296.02 312.3 0 0 -216.96 -312.3 0 0 -311.44 -327.53 0zm-470.83 824.43l0 -169.36 120.33 169.36 -120.33 0zm470.83 -296.02l0 249.49 -177.27 -249.49 177.27 0z"/>
  </g>
 </g>
</svg>
