<?xml version="1.0" encoding="UTF-8"?>
<!DOCTYPE svg PUBLIC "-//W3C//DTD SVG 1.1//EN" "http://www.w3.org/Graphics/SVG/1.1/DTD/svg11.dtd">
<!-- Creator: CorelDRAW 2020 (64-Bit) -->
<svg xmlns="http://www.w3.org/2000/svg" xml:space="preserve" width="8.26772in" height="11.6929in" version="1.1" style="shape-rendering:geometricPrecision; text-rendering:geometricPrecision; image-rendering:optimizeQuality; fill-rule:evenodd; clip-rule:evenodd"
viewBox="0 0 8267.72 11692.91"
 xmlns:xlink="http://www.w3.org/1999/xlink"
 xmlns:xodm="http://www.corel.com/coreldraw/odm/2003">
 <defs>
  <style type="text/css">
   <![CDATA[
    .fil0 {fill:black}
   ]]>
  </style>
   <clipPath id="id0">
    <rect x="908.95" y="2624.56" width="6444.2" height="6444.2"/>
   </clipPath>
 </defs>
 <g id="Layer_x0020_1">
  <metadata id="CorelCorpID_0Corel-Layer"/>
  <g style="clip-path:url(#id0)">
   <image x="908.95" y="2624.56" width="6444.2" height="6444.2" xlink:href="hd_Images\hd_ImgID1.png"/>
  </g>
  <g id="_2024186132480">
   <path class="fil0" d="M1022.22 6324.94c0,457.17 -39.13,332.76 171.98,784.58 65.27,139.68 118.83,273.29 180.65,410.91 90.41,201.27 80.43,162.67 248.37,330.61 339.25,339.25 280.04,199.33 280.04,663.93l893.63 0 0 -516.04c0,-162.64 253.18,-292.7 336.78,-418.4 19.51,-29.33 38.09,-173.48 46.13,-218.19l158.3 -873.78c-119.1,-27.74 -245.9,-47.77 -365,-75.52 -10.38,44.56 -36.66,97.98 -55.73,145.65 -22.51,56.27 -38.94,97.27 -61.16,152.81 -20.74,51.81 -39,98.46 -57.05,144.33 -20.95,53.27 -45.54,98.42 -115.55,98.42l-440.52 0c-58.44,0 -80.2,-31.38 -106.15,-70.06 -28.73,-42.83 -46.58,-70.89 -75.11,-113.69l-291.98 -438.03c-84.15,-126.02 -72.12,-95.78 -91.3,-273.7 -17.15,-159.06 -29.64,-568.35 -46.88,-683.13l-33.88 -507.33c-22.01,-172.03 54.63,-141.85 -336.43,-141.85 -52.01,0 -35.43,55.98 -48.47,178.09 -7.15,66.91 -12.97,152.3 -14.46,212.09l-51.17 641.07c-3.57,47.06 -12.65,166 -20.54,206.02 -20.85,105.74 -104.5,275.99 -104.5,361.19z"/>
   <path class="fil0" d="M6019 6954.26l-440.52 0c-66.42,0 -93.3,-43.5 -112.07,-89.31l-118.1 -297.25c-19.29,-48.19 -48.64,-108.83 -59.31,-154.65 -119.1,27.75 -245.91,47.77 -365,75.52l195.5 1075.72c10.01,24.09 104.15,111.28 128.59,135.72 45,45 80.65,81.11 125.89,125.83 48.83,48.28 91.22,79.71 91.22,173.09l0 516.04 893.63 0c0,-464.13 -58.06,-325.83 273.75,-657.63 198.56,-198.57 160.43,-127.13 254.66,-336.9 40.46,-90.07 352.63,-783.36 352.63,-817.9l0 -377.59c0,-82.21 -81.74,-253.34 -102.34,-350.77 -10.6,-50.12 -16.01,-151.95 -21.61,-204.95l-65.59 -853.2c-18.78,-245.83 34.98,-189.54 -339.09,-189.54 -53.88,0 -36.73,70.14 -45.14,131.07 -25.7,186.11 -34.45,678.42 -59,859.81 -13.95,103.08 -11.07,225.51 -23.57,341.43 -25.72,238.52 -63.39,231.88 -237.29,492.72l-216.16 325.06c-26.04,39.59 -48.5,77.7 -111.09,77.7z"/>
   <path class="fil0" d="M3803.81 5229.93c0,-107.28 24.33,-503.7 -10.32,-568.65 -12.99,-24.35 -262.91,-267.91 -291.75,-287.22l148.01 -154.06c58.16,39.94 147.7,141.41 201.26,194.96 50.61,50.61 166.77,137.87 166.77,223.41l0 994.32 226.55 0 0 -994.32c0,-85.54 116.17,-172.8 166.77,-223.41 53.56,-53.56 143.09,-155.02 198.23,-191.94l148.28 141.23c-47.38,72.62 -250.82,240.57 -283.98,289.46 -33.73,49.73 -15.34,485.3 -15.34,576.22 170.47,-14.19 430.75,-261.59 507.62,-386.01 159.49,-258.17 219.37,-535.08 113.95,-877.46 -17.47,-56.74 -46.04,-102.96 -71.81,-154.74 -67.01,-134.62 -191.15,-267.94 -316.16,-350.92 -343.94,-228.29 -765.26,-227.41 -1114.04,-4.94l-177.02 150.22c-127.42,166.29 -226.43,289.2 -261.17,531.78 -41.39,289 43.61,523.3 156.52,706.06 76.87,124.42 337.15,371.83 507.62,386.01z"/>
   <path class="fil0" d="M5238.65 9068.77l1346.74 0 0 -302.07c0,-29 -8.76,-37.76 -37.76,-37.76l-1308.98 0 0 339.83z"/>
   <path class="fil0" d="M1676.72 8766.7l0 302.07 1346.74 0 0 -339.83 -1308.98 0c-29,0 -37.76,8.76 -37.76,37.76z"/>
   <polygon class="fil0" points="3904.5,6073.22 4357.61,6073.22 4357.61,5846.67 3904.5,5846.67 "/>
   <path class="fil0" d="M2457.07 4210.44c0,242.37 -40.98,201.38 201.38,201.38 57,0 37.76,-64.56 37.76,-201.38 0,-57 -64.56,-37.76 -201.38,-37.76 -29,0 -37.76,8.76 -37.76,37.76z"/>
   <path class="fil0" d="M5565.89 4210.44c0,242.37 -40.98,201.38 201.38,201.38 57,0 37.76,-64.56 37.76,-201.38 0,-57 -64.56,-37.76 -201.38,-37.76 -29,0 -37.76,8.76 -37.76,37.76z"/>
   <polygon class="fil0" points="5072,3187.92 5235.62,3357.6 5392.49,3193.73 5235.84,3030.11 "/>
   <path class="fil0" d="M5072 5390.53l151.05 157.09c45.06,-14.25 57.9,-38.48 88.02,-69.05 29.82,-30.27 56.22,-51.56 78.62,-85l-153.84 -160.84 -163.85 157.81z"/>
   <path class="fil0" d="M2869.39 5390.53c24.16,34.58 46.85,53.05 75.37,81.72 30.31,30.46 46.54,60.4 91.28,72.35l154.06 -148.02 -156.87 -163.86 -163.85 157.81z"/>
   <polygon class="fil0" points="2869.39,3187.92 3026.26,3351.79 3190.11,3193.98 3033.23,3030.11 "/>
   <polygon class="fil0" points="4017.78,2851.12 4244.33,2851.12 4244.33,2624.56 4017.78,2624.56 "/>
  </g>
 </g>
</svg>
