<?xml version="1.0" encoding="UTF-8"?>
<!DOCTYPE svg PUBLIC "-//W3C//DTD SVG 1.1//EN" "http://www.w3.org/Graphics/SVG/1.1/DTD/svg11.dtd">
<!-- Creator: CorelDRAW 2020 (64-Bit) -->
<svg xmlns="http://www.w3.org/2000/svg" xml:space="preserve" width="8.26772in" height="11.6929in" version="1.1" style="shape-rendering:geometricPrecision; text-rendering:geometricPrecision; image-rendering:optimizeQuality; fill-rule:evenodd; clip-rule:evenodd"
viewBox="0 0 8267.72 11692.91"
 xmlns:xlink="http://www.w3.org/1999/xlink"
 xmlns:xodm="http://www.corel.com/coreldraw/odm/2003">
 <defs>
  <style type="text/css">
   <![CDATA[
    .fil0 {fill:#FFFFFF}
   ]]>
  </style>
 </defs>
 <g id="Layer_x0020_1">
  <metadata id="CorelCorpID_0Corel-Layer"/>
  <g id="_2024191594608">
   <path class="fil0" d="M3288.18 6094.13c-195.95,0 -145.44,-246.2 -118.24,-360.81 96.64,-407.06 470.63,-736.03 867.04,-736.03 67.04,0 210.93,-9.9 210.93,137.11 0,65.6 -37.55,121.08 -91.44,140.58 -49.13,17.78 -560.13,-4.82 -697.65,504.65 -27.62,102.34 -18.43,176.31 -28.96,213.61 -16.86,59.76 -69.29,100.88 -141.69,100.88zm-516.78 -221.48c0,265.22 14.17,418.04 137.09,664.44 36.72,73.63 74.62,138.04 123.44,203.5l150.87 176.07c134.43,174.06 214.86,299 267.76,533.77 21.74,96.49 48.72,267.86 227.83,267.86l843.72 0c212.35,0 208.23,-229.21 262.31,-391.57 138.94,-417.07 327.68,-430.75 511.11,-796.66 140.69,-280.65 174.43,-628.62 89.31,-940.08 -23.95,-87.64 -54.87,-154.6 -89.74,-237.2 -55.29,-130.95 -175.32,-269.17 -274.66,-368.68 -367.33,-367.93 -941.13,-478.64 -1450.71,-264.23 -228.92,96.32 -316.87,193.39 -468.7,343.38 -37.33,36.87 -39.7,45.12 -70.44,87.76 -49.78,69.04 -86.04,121.76 -125.72,201.22 -61.45,123.07 -133.47,341.93 -133.47,520.41z"/>
   <path class="fil0" d="M3478.01 8097.96c0,152.67 11.17,362.17 221.48,379.67 2.15,96.55 53.43,274.21 200.39,274.21l411.31 0c131.52,0 187.95,-189.44 189.84,-274.21 281.7,-23.44 285.17,-558.96 84.37,-558.96l-970.28 0c-82.28,0 -137.11,82.06 -137.11,179.29z"/>
   <path class="fil0" d="M3942.06 3562.97c0,130.02 -21.28,473 35.41,555.2 60.38,87.54 280.99,116.85 280.99,-154.43 0,-116.94 17.15,-461.53 -27.3,-542.22 -23.05,-41.85 -67.24,-64.96 -113.75,-69.48l-33.97 0c-44.11,4.27 -86.19,25.24 -110.19,62.83 -20.59,32.26 -31.19,93.13 -31.19,148.09z"/>
   <path class="fil0" d="M2222.98 4195.76c0,120.51 60.47,150.11 134.47,224.11 73.13,73.13 270.35,295.69 358.68,317.28 85.06,20.8 181.83,-42.39 181.83,-161.72 0,-78.87 -245.59,-293.05 -308.48,-355.94 -45.35,-45.35 -113.04,-134.13 -176.22,-151.62 -82.55,-22.86 -190.27,38.14 -190.27,127.89z"/>
   <path class="fil0" d="M1505.82 5935.93c0,81.52 61.18,158.2 137.11,158.2l558.96 0c174.56,0 193.95,-305.85 -31.64,-305.85l-495.69 0c-88.43,0 -168.74,61.26 -168.74,147.65z"/>
   <path class="fil0" d="M5861.52 5935.93c0,81.52 61.18,158.2 137.11,158.2l558.96 0c168.09,0 202.74,-305.85 -31.64,-305.85l-495.69 0c-89.62,0 -168.74,70.3 -168.74,147.65z"/>
   <path class="fil0" d="M5302.56 4575.44c0,114.34 81.87,168.74 147.65,168.74 104.98,0 325.68,-257.47 429.77,-361.22 55.95,-55.76 156.11,-160.83 61.68,-267.35 -45.74,-51.59 -87.59,-46.41 -143.42,-46.41 -62.37,0 -217.34,180.43 -266.3,229.39 -44.76,44.76 -81.79,81.8 -126.56,126.56 -36.48,36.47 -102.83,85.69 -102.83,150.29z"/>
   <path class="fil0" d="M5302.56 7285.89c0,113.99 117.03,196.12 224.11,303.21 72.32,72.32 209.52,234.66 292.67,234.66 87.8,0 158.2,-62.95 158.2,-147.65 0,-102.11 -125.03,-193.59 -224.11,-292.67 -72.17,-72.17 -208.59,-234.66 -282.12,-234.66 -104.18,0 -168.74,59.62 -168.74,137.11z"/>
   <path class="fil0" d="M2222.98 7655.01c0,102.2 60.49,168.74 147.65,168.74 104.57,0 321.43,-253.06 424.5,-355.94 72.86,-72.73 158.9,-167.73 58.72,-274.93 -38.92,-41.65 -61.04,-44.1 -124.64,-44.1 -64.6,0 -113.82,66.35 -150.29,102.83l-253.12 253.12c-36.48,36.47 -102.83,85.69 -102.83,150.29z"/>
  </g>
 </g>
</svg>
