<?xml version="1.0" encoding="UTF-8"?>
<!DOCTYPE svg PUBLIC "-//W3C//DTD SVG 1.1//EN" "http://www.w3.org/Graphics/SVG/1.1/DTD/svg11.dtd">
<!-- Creator: CorelDRAW 2020 (64-Bit) -->
<svg xmlns="http://www.w3.org/2000/svg" xml:space="preserve" width="8.26772in" height="11.6929in" version="1.1" style="shape-rendering:geometricPrecision; text-rendering:geometricPrecision; image-rendering:optimizeQuality; fill-rule:evenodd; clip-rule:evenodd"
viewBox="0 0 8267.72 11692.91"
 xmlns:xlink="http://www.w3.org/1999/xlink"
 xmlns:xodm="http://www.corel.com/coreldraw/odm/2003">
 <defs>
  <style type="text/css">
   <![CDATA[
    .fil0 {fill:#FFFFFF}
   ]]>
  </style>
 </defs>
 <g id="Layer_x0020_1">
  <metadata id="CorelCorpID_0Corel-Layer"/>
  <g id="_2024182936608">
   <path class="fil0" d="M3091.35 7052.72c0,237 230.94,457.47 471.33,457.47l360.43 0 0 790.17 -266.87 -246.05c-45.41,-42.46 -90.91,-68.63 -143.04,-106.49l-244.17 -143.99c-31.7,-15.21 -52.86,-24.2 -86.48,-38.29 -457.14,-191.52 -926.25,-146.91 -1382.2,-7.6 -94.34,28.82 -382.46,138.56 -444.33,193.36 -54.48,48.26 -66.83,103.15 -66.83,182.7 0,112.16 322.78,533.65 439.86,655.29 67.49,70.11 126.45,113.93 194.19,180.1 234.69,229.23 692.94,426.11 1057.2,426.11l105.43 0c170.59,-0.44 282.7,-5.6 479.72,-52.54l371.38 -99.95c43.56,186.97 344.6,186.97 388.16,0 74.46,1.66 380.13,130.23 773.66,152.49l224.81 0c269.11,-15.76 563.36,-92.39 845.37,-291.01 234.61,-165.23 418.96,-354.57 592.18,-586.15 55.15,-73.73 193.68,-274.93 216.16,-367.27 43.41,-178.31 -132.24,-246.15 -261.84,-300.29 -643.97,-269.03 -1375.7,-326.5 -1956.81,92.93 -183.19,132.22 -413.3,366.23 -419.67,370.5l0 -804.04 360.43 0c240.21,0 471.33,-218.77 471.33,-457.47l0 -388.16 -2079.4 0 0 388.16z"/>
   <path class="fil0" d="M2467.53 5111.94c0,378.23 23.16,608.2 222.57,941.9 17.61,29.47 36.22,63.61 58.41,94.09 25.54,35.1 54.21,58.11 65.59,100.76l1109.02 0 0 -720.86c0,-105.9 -459.47,-349.75 -408.48,-559.86 34.6,-142.57 123.44,-161 228.26,-161 124.44,0 290.04,253.14 388.15,318.84 163.26,-109.33 212.91,-318.84 443.61,-318.84 89.09,0 147.11,76.76 169.6,150.43 44.35,145.25 -131.67,276.04 -249.31,393.68 -33.1,33.1 -155.96,133.04 -155.96,176.75l0 720.86 1081.29 0c77.44,0 374.29,-552.42 374.29,-914.94 0,-333.63 -9,-533.91 -166.3,-845.68 -122.2,-242.2 -318.14,-495.38 -546.14,-646.06 -82.5,-54.52 -159.59,-107.81 -253.94,-148.08 -649.8,-277.36 -1359.52,-172.31 -1865.08,333.25 -258.37,258.37 -495.59,697.17 -495.59,1084.76z"/>
   <path class="fil0" d="M1011.94 5416.92c0,287.84 336.51,221.8 609.96,221.8 289.19,0 302.67,-429.74 0,-429.74 -259.9,0 -609.96,-60.41 -609.96,207.94z"/>
   <path class="fil0" d="M6418.4 5416.92c0,287.84 336.5,221.8 609.96,221.8 289.19,0 302.66,-429.74 0,-429.74 -259.9,0 -609.96,-60.41 -609.96,207.94z"/>
   <path class="fil0" d="M1857.57 3365.24c0,115.05 138.49,214.74 204.47,280.72 76.13,76.13 265.77,334.02 449.89,165.71 32.52,-29.73 66.49,-96.68 66.49,-155.31 0,-133.98 -190.3,-278.6 -315.31,-405.55 -61.28,-62.23 -131.61,-124.36 -239.49,-94.99 -90.6,24.67 -166.06,102.18 -166.06,209.43z"/>
   <path class="fil0" d="M5683.67 3656.36c0,135.91 96.81,207.94 235.67,207.94 100.93,0 293.86,-233.5 398.69,-336.03 233.89,-228.74 -71.87,-529.22 -312.19,-284.46 -126.06,128.39 -322.17,277.95 -322.17,412.55z"/>
   <path class="fil0" d="M3923.11 2478.03l0 471.33c0,239.34 415.88,239.34 415.88,0l0 -471.33c0,-239.35 -415.88,-239.35 -415.88,0z"/>
  </g>
 </g>
</svg>
